# xmcd CD database file
#
# Track frame offsets:
#	150
#	1558
#	24048
#	41167
#	53811
#	75787
#	94192
#	112551
#	127920
#	143905
#	170714
#	188196
#	208991
#	226694
#	244735
#
# Disc length: 3543 seconds
#
# Revision: 0
# Processed by: cddbd v1.5.1PL0 Copyright (c) Steve Scherf et al.
# Submitted via: CDex 1,1,6,0
#
DISCID=ab0dd50f
DTITLE=Brandon Rhyder - Conviction
DYEAR=2005
DGENRE=Country
TTITLE0=Prelude of Conviction
TTITLE1=Freeze Frame Time
TTITLE2=Man of Conviction
TTITLE3=Go Back In Fool
TTITLE4=Let The Good Times Roll
TTITLE5=Mr. Soldier
TTITLE6=Back Roads
TTITLE7=California
TTITLE8=Between Here And The Front Door
TTITLE9=Movin' Too Fast
TTITLE10=Merry Go Round
TTITLE11=I Can't Hang On
TTITLE12=Losing The War
TTITLE13=A Storm Blew In
TTITLE14=I Love The Rain
EXTD=YEAR: 2005
EXTT0=
EXTT1=
EXTT2=
EXTT3=
EXTT4=
EXTT5=
EXTT6=
EXTT7=
EXTT8=
EXTT9=
EXTT10=
EXTT11=
EXTT12=
EXTT13=
EXTT14=
PLAYORDER=
